<?xml version="1.0" encoding="UTF-8" standalone="no"?><svg xmlns="http://www.w3.org/2000/svg" xmlns:xlink="http://www.w3.org/1999/xlink" contentScriptType="text/ecmascript" zoomAndPan="magnify" contentStyleType="text/css" stroke="#000000" stroke-linecap="square" version="1" width="270" stroke-miterlimit="10" fill="#000000" preserveAspectRatio="xMidYMid meet" viewBox="0 0 270 270" height="270"><g><defs><radialGradient gradientTransform="matrix(0.0 0.0 0.0 0.0 135.0 135.0)" id="a" gradientUnits="userSpaceOnUse" spreadMethod="pad" xlink:show="other" xlink:type="simple" r="270" cx="135" fx="135" cy="135" fy="135" xlink:actuate="onLoad"><stop stop-opacity="0.22" stop-color="#ff7a00" offset="0%"/><stop stop-opacity="0" stop-color="#ff7a00" offset="72%"/><stop stop-opacity="0" stop-color="#ff7a00" offset="100%"/></radialGradient></defs><g fill="url(#a)" stroke-width="0.25" stroke-linejoin="round" stroke-linecap="butt" stroke="url(#a)"><path d="M0 9C0 4.03 4.03 0 9 0H261c4.97 0 9 4.03 9 9V261c0 4.97-4.03 9-9 9H9c-4.97 0-9-4.03-9-9Z" stroke="none"/></g><g stroke-linecap="butt" fill-opacity="0" fill="#ffffff" stroke-linejoin="round" stroke="#ffffff" stroke-width="0.25" stroke-opacity="0"><path fill="none" d="M0 9C0 4.03 4.03 0 9 0H261c4.97 0 9 4.03 9 9V261c0 4.97-4.03 9-9 9H9c-4.97 0-9-4.03-9-9Z" stroke="none"/></g></g></svg>